HIERARCHY
ROOT Hips
{
	OFFSET 0.00000 0.00000 0.00000
	CHANNELS 6 Xposition Yposition Zposition Zrotation Yrotation Xrotation 
	JOINT LHipJoint
	{
		OFFSET 0 0 0
		CHANNELS 3 Zrotation Yrotation Xrotation
		JOINT LeftUpLeg
		{
			OFFSET 1.37324 -1.83837 0.85674
			CHANNELS 3 Zrotation Yrotation Xrotation
			JOINT LeftLeg
			{
				OFFSET 2.53826 -6.97383 0.00000
				CHANNELS 3 Zrotation Yrotation Xrotation
				JOINT LeftFoot
				{
					OFFSET 2.65296 -7.28895 0.00000
					CHANNELS 3 Zrotation Yrotation Xrotation
					JOINT LeftToeBase
					{
						OFFSET 0.22100 -0.60718 2.29776
						CHANNELS 3 Zrotation Yrotation Xrotation
						End Site
						{
							OFFSET 0.00000 -0.00000 1.19228
						}
					}
				}
			}
		}
	}
	JOINT RHipJoint
	{
		OFFSET 0 0 0
		CHANNELS 3 Zrotation Yrotation Xrotation
		JOINT RightUpLeg
		{
			OFFSET -1.30156 -1.83836 0.85673
			CHANNELS 3 Zrotation Yrotation Xrotation
			JOINT RightLeg
			{
				OFFSET -2.63627 -7.24310 0.00000
				CHANNELS 3 Zrotation Yrotation Xrotation
				JOINT RightFoot
				{
					OFFSET -2.62024 -7.19904 0.00000
					CHANNELS 3 Zrotation Yrotation Xrotation
					JOINT RightToeBase
					{
						OFFSET -0.20765 -0.57052 2.42402
						CHANNELS 3 Zrotation Yrotation Xrotation
						End Site
						{
							OFFSET -0.00000 -0.00000 1.24980
						}
					}
				}
			}
		}
	}
	JOINT LowerBack
	{
		OFFSET 0 0 0
		CHANNELS 3 Zrotation Yrotation Xrotation
		JOINT Spine
		{
			OFFSET 0.05739 2.14162 -0.22815
			CHANNELS 3 Zrotation Yrotation Xrotation
			JOINT Spine1
			{
				OFFSET 0.02798 2.14167 0.08145
				CHANNELS 3 Zrotation Yrotation Xrotation
				JOINT Neck
				{
					OFFSET 0 0 0
					CHANNELS 3 Zrotation Yrotation Xrotation
					JOINT Neck1
					{
						OFFSET -0.07019 1.58903 0.32980
						CHANNELS 3 Zrotation Yrotation Xrotation
						JOINT Head
						{
							OFFSET -0.03205 1.65283 -0.21190
							CHANNELS 3 Zrotation Yrotation Xrotation
							End Site
							{
								OFFSET -0.00726 1.66788 -0.10849
							}
						}
					}
				}
				JOINT LeftShoulder
				{
					OFFSET 0 0 0
					CHANNELS 3 Zrotation Yrotation Xrotation
					JOINT LeftArm
					{
						OFFSET 3.92858 0.97533 -0.07938
						CHANNELS 3 Zrotation Yrotation Xrotation
						JOINT LeftForeArm
						{
							OFFSET 5.58345 -0.00000 -0.00000
							CHANNELS 3 Zrotation Yrotation Xrotation
							JOINT LeftHand
							{
								OFFSET 3.71087 -0.00000 0.00000
								CHANNELS 3 Zrotation Yrotation Xrotation
								JOINT LeftFingerBase
								{
									OFFSET 0 0 0
									CHANNELS 3 Zrotation Yrotation Xrotation
									JOINT LeftHandIndex1
									{
										OFFSET 0.56232 -0.00000 -0.00000
										CHANNELS 3 Zrotation Yrotation Xrotation
										End Site
										{
											OFFSET 0.45336 -0.00000 -0.00000
										}
									}
								}
								JOINT LThumb
								{
									OFFSET 0 0 0
									CHANNELS 3 Zrotation Yrotation Xrotation
									End Site
									{
										OFFSET 0.46028 -0.00000 0.46028
									}
								}
							}
						}
					}
				}
				JOINT RightShoulder
				{
					OFFSET 0 0 0
					CHANNELS 3 Zrotation Yrotation Xrotation
					JOINT RightArm
					{
						OFFSET -3.89897 1.08887 -0.22589
						CHANNELS 3 Zrotation Yrotation Xrotation
						JOINT RightForeArm
						{
							OFFSET -5.20357 -0.00000 -0.00000
							CHANNELS 3 Zrotation Yrotation Xrotation
							JOINT RightHand
							{
								OFFSET -3.64937 -0.00000 0.00000
								CHANNELS 3 Zrotation Yrotation Xrotation
								JOINT RightFingerBase
								{
									OFFSET 0 0 0
									CHANNELS 3 Zrotation Yrotation Xrotation
									JOINT RightHandIndex1
									{
										OFFSET -0.61800 -0.00000 -0.00000
										CHANNELS 3 Zrotation Yrotation Xrotation
										End Site
										{
											OFFSET -0.49824 -0.00000 -0.00000
										}
									}
								}
								JOINT RThumb
								{
									OFFSET 0 0 0
									CHANNELS 3 Zrotation Yrotation Xrotation
									End Site
									{
										OFFSET -0.50585 -0.00000 0.50585
									}
								}
							}
						}
					}
				}
			}
		}
	}
}
MOTION
Frames: 13
Frame Time: .0083333
-2.5107 16.6061 -47.7703 0 0 0 0 0 0 -21 0 0 0 0 0 0 0 0 0 0 0 0 0 0 21 0 0 0 0 0 0 0 0 0 0 0 0 0 0 0 0 0 0 0 0 0 0 -16 0 0 21 0 0 11 0 0 0 -8 0 0 0 0 0 0 0 0 0 0 0 0 0 0 0 0 0 0 0 0 8 0 0 0 0 0 0 0 0 0 0 0 0 0 0 0 0 0
-2.5107 16.6061 -47.7703 8.2208 2.2864 15.5326 0.0000 0.0000 0.0000 -31.2095 -1.5118 4.5842 6.7111 15.0837 47.7731 0.5924 -0.5603 14.7547 0.0490 -1.4283 -3.9281 0.0000 0.0000 0.0000 12.2328 4.1355 -65.0723 -9.7289 -17.2546 58.5785 -0.5053 7.7478 -12.9720 -2.1882 9.2476 -26.5728 -7.3995 -1.2335 16.3143 0.2731 -3.0013 0.0856 5.1913 -1.1139 -8.6911 0.2022 1.8430 -25.1037 -5.9706 3.2384 7.4725 -1.5952 1.0158 6.3750 -0.0000 -0.0000 0.0000 -86.0603 4.4927 54.2705 118.4279 -56.7145 -84.3477 -0.0000 0.0000 -19.6452 18.2988 -7.4690 -2.4615 -7.1250 0.0000 -0.0000 -6.2028 22.1335 3.4283 -0.0000 -0.0000 0.0000 84.8602 -34.5926 18.1314 -53.9820 54.4805 -29.3856 0.0000 -0.0000 -8.7680 -36.7901 0.2640 -0.1975 7.1250 -0.0000 -0.0000 -8.0148 -29.6040 -3.0360
-2.4861 16.6099 -47.2094 7.8114 2.1673 15.1159 0.0000 0.0000 0.0000 -30.3841 -1.5243 2.1867 8.0607 16.1637 52.7809 0.5255 -1.1771 14.1704 0.0818 -1.8445 -5.0760 0.0000 0.0000 0.0000 13.4859 3.6657 -63.2931 -9.7326 -17.2567 58.5908 -0.3856 7.8114 -11.5567 -1.3706 7.4092 -20.9336 -6.8911 -1.0578 16.5271 0.3919 -2.6692 0.2873 4.9630 -0.9803 -8.6504 -0.0309 1.6975 -25.2923 -6.0187 3.1237 7.3821 -1.5883 0.9473 6.3682 0.0000 0.0000 0.0000 -86.3436 4.9618 52.5508 112.9176 -57.9193 -79.7086 -0.0000 0.0000 -16.3536 18.4973 -7.4286 -2.4767 -7.1250 0.0000 -0.0000 -6.0586 22.1662 3.3432 0.0000 0.0000 0.0000 85.3805 -32.5220 17.6446 -53.2149 54.2126 -28.7623 0.0000 -0.0000 -8.6640 -36.7514 -0.0090 0.0067 7.1250 -0.0000 -0.0000 -8.0122 -29.9420 -2.9698
-2.4676 16.5952 -46.6530 7.2674 2.1162 14.6943 0.0000 0.0000 0.0000 -29.2970 -1.5028 -0.1129 9.4856 17.1103 57.7549 0.4031 -2.0009 12.8917 0.1461 -2.4632 -6.7875 0.0000 0.0000 0.0000 15.0449 3.0784 -61.6166 -9.9457 -17.3792 59.3066 -0.3614 8.1837 -11.3531 -0.3410 3.7523 -10.3808 -6.3287 -0.8953 16.8050 0.5572 -2.3484 0.3758 4.7607 -0.8433 -8.7654 -0.2629 1.5578 -25.0076 -6.0111 2.9919 7.1457 -1.5649 0.8880 6.2408 -0.0000 0.0000 0.0000 -86.6195 5.6624 50.9247 106.9780 -58.8823 -74.6482 -0.0000 0.0000 -13.7545 19.3356 -7.4358 -2.6000 -7.1250 0.0000 -0.0000 -5.4471 22.1173 3.0087 -0.0000 0.0000 0.0000 85.8167 -30.6002 17.2851 -52.3304 53.8932 -28.0463 0.0000 -0.0000 -8.2519 -36.5983 0.1775 -0.1318 7.1250 -0.0000 -0.0000 -7.8739 -29.7134 -2.9610
-2.4547 16.5664 -46.1033 6.6011 2.1398 14.2350 0.0000 0.0000 0.0000 -27.9485 -1.4676 -2.4903 10.9148 17.8932 62.5047 0.2790 -2.6613 11.3197 0.2478 -3.2034 -8.8454 0.0000 0.0000 0.0000 16.6534 2.4993 -59.5221 -10.2169 -17.5300 60.2109 -0.6141 4.3823 -13.9658 -0.1873 2.7870 -7.6864 -5.6726 -0.7303 17.2094 0.7370 -2.0087 0.4720 4.5177 -0.6988 -8.9432 -0.3830 1.4155 -24.9662 -5.9974 2.8362 7.1131 -1.5605 0.8119 6.2174 -0.0000 0.0000 0.0000 -86.8536 6.2394 49.1887 100.7102 -59.5621 -69.2617 -0.0000 0.0000 -11.8522 19.9301 -7.4142 -2.6788 -7.1250 0.0000 -0.0000 -5.0135 22.1095 2.7682 -0.0000 0.0000 0.0000 86.1965 -28.6771 17.1486 -51.5664 53.6081 -27.4302 0.0000 -0.0000 -7.8173 -36.6058 0.0640 -0.0475 7.1250 -0.0000 -0.0000 -7.8910 -29.8533 -2.9410
-2.4493 16.5307 -45.5535 5.8370 2.2070 13.6747 0.0000 0.0000 0.0000 -26.3516 -1.3895 -4.8882 12.3466 18.5333 67.0832 0.1724 -3.1954 9.6927 0.4069 -4.0949 -11.3438 0.0000 0.0000 0.0000 18.0129 2.2208 -57.0812 -10.5391 -17.7021 61.2756 -0.8898 4.3516 -16.8944 -0.1146 2.1821 -6.0092 -5.0182 -0.5675 17.7409 0.9576 -1.6709 0.5072 4.3222 -0.5493 -9.2524 -0.5248 1.2577 -24.5141 -5.8966 2.6352 6.9089 -1.5284 0.7327 6.0731 0.0000 -0.0000 0.0000 -87.1000 7.0613 47.4599 94.2129 -59.9328 -63.6477 -0.0000 0.0000 -10.3639 21.1728 -6.9488 -2.6829 -7.1250 0.0000 -0.0000 -4.1047 22.5393 2.2233 0.0000 -0.0000 0.0000 86.4651 -26.9071 17.2656 -50.8271 53.3237 -26.8361 0.0000 -0.0000 -7.4733 -36.7442 -0.0356 0.0266 7.1250 -0.0000 -0.0000 -8.0092 -29.9749 -2.9623
-2.4446 16.4856 -45.0227 5.0464 2.0537 13.2436 0.0000 0.0000 0.0000 -24.7590 -1.2842 -7.7482 13.7867 19.0481 71.5519 0.0900 -3.3230 7.8775 0.6764 -5.2590 -14.6489 0.0000 0.0000 0.0000 18.9297 2.5965 -54.7747 -10.8728 -17.8723 62.3678 -1.0473 5.3374 -18.2982 -0.0114 0.6880 -1.8907 -4.4036 -0.3191 18.2768 1.1419 -1.2232 0.5514 4.0764 -0.3492 -9.5603 -0.6325 1.0889 -24.3190 -5.7567 2.4134 6.7847 -1.4915 0.6412 5.9927 -0.0000 -0.0000 0.0000 -87.2954 7.7617 45.6113 88.1085 -59.9865 -58.3620 -0.0000 0.0000 -10.8741 21.3330 -7.0763 -2.7545 -7.1250 0.0000 -0.0000 -3.9878 22.3948 2.1729 -0.0000 -0.0000 0.0000 86.6808 -24.9359 17.5473 -50.0564 53.0182 -26.2192 0.0000 -0.0000 -7.2689 -36.9462 -0.0404 0.0304 7.1250 -0.0000 -0.0000 -8.1678 -29.9790 -3.0213
-2.4443 16.4528 -44.4982 4.3164 2.1824 12.9159 0.0000 0.0000 0.0000 -23.1177 -1.6427 -10.7604 15.1986 19.4381 75.8342 0.0311 -3.1483 5.8642 0.9614 -6.2432 -17.4917 0.0000 0.0000 0.0000 19.5925 3.0285 -52.5896 -11.1572 -18.0112 63.2910 -1.2255 3.8446 -20.0070 -0.0028 -0.3431 0.9427 -3.7362 -0.1424 18.9341 1.3152 -0.8575 0.4902 3.8077 -0.1867 -10.0398 -0.7316 0.8817 -24.0695 -5.5650 2.1286 6.6367 -1.4461 0.5250 5.8946 -0.0000 -0.0000 0.0000 -87.4897 8.2093 43.7571 81.3932 -59.7182 -52.5534 -0.0000 0.0000 -11.9539 21.2583 -6.9866 -2.7094 -7.1250 0.0000 -0.0000 -4.0422 22.4945 2.1934 -0.0000 -0.0000 0.0000 86.8016 -22.9658 17.9669 -49.3424 52.7268 -25.6499 0.0000 -0.0000 -7.3933 -36.9451 -0.0753 0.0566 7.1250 -0.0000 -0.0000 -8.1704 -30.0222 -3.0138
-2.4385 16.3865 -43.9714 3.2291 1.9217 12.1309 0.0000 0.0000 0.0000 -21.1166 -1.4947 -13.4377 16.5827 19.7177 79.9630 -0.0069 -2.8338 3.6101 1.1484 -6.8046 -19.1377 0.0000 0.0000 0.0000 20.6933 3.6451 -49.7560 -11.4220 -18.1355 64.1446 -1.5165 3.9492 -22.3348 -0.0000 -0.0243 0.0668 -2.8882 0.1626 19.8150 1.5537 -0.2670 0.7102 3.4369 0.0622 -10.3433 -0.7591 0.7199 -24.2382 -5.4575 1.9054 6.5157 -1.4331 0.4259 5.8723 0.0000 0.0000 0.0000 -87.6876 8.4663 41.8118 74.9353 -59.1249 -46.9919 -0.0000 0.0000 -13.2395 22.1113 -7.1532 -2.8962 -7.1250 0.0000 -0.0000 -3.4188 22.2700 1.8714 0.0000 0.0000 0.0000 86.7701 -20.5571 18.6307 -48.4046 52.3314 -24.9056 0.0000 -0.0000 -7.4282 -37.3277 -0.2033 0.1550 7.1250 -0.0000 -0.0000 -8.4835 -30.1779 -3.0996
-2.4293 16.3172 -43.4503 1.6411 1.8270 11.7557 0.0000 0.0000 0.0000 -18.4455 -1.6850 -16.7418 17.9574 19.8997 84.0182 -0.0160 -2.2627 1.1456 1.3499 -7.3553 -20.7722 0.0000 0.0000 0.0000 22.4417 4.2592 -47.1721 -11.6462 -18.2370 64.8628 -1.8492 3.5480 -24.8372 -0.0106 0.6653 -1.8283 -1.4780 0.3517 20.2681 1.9269 0.3369 0.7853 2.8732 0.2903 -10.5541 -0.7336 0.5452 -24.1216 -5.3961 1.6404 6.2401 -1.4467 0.3118 5.7577 0.0000 -0.0000 0.0000 -87.7389 8.8974 39.8868 69.1769 -58.2965 -42.0698 -0.0000 0.0000 -14.4297 23.0797 -7.1293 -3.0273 -7.1250 0.0000 -0.0000 -2.7099 22.2404 1.4842 0.0000 -0.0000 0.0000 86.6161 -18.1983 19.4702 -47.6059 51.9831 -24.2749 0.0000 -0.0000 -7.3461 -37.5285 -0.2871 0.2206 7.1250 -0.0000 -0.0000 -8.6500 -30.2809 -3.1401
-2.4146 16.2482 -42.9302 -0.4058 1.7222 11.6429 0.0000 0.0000 0.0000 -15.1423 -1.9201 -20.5403 19.2698 19.9872 87.8646 0.0001 -1.7386 -1.2248 1.4455 -7.6004 -21.5069 0.0000 0.0000 0.0000 24.7185 4.9732 -44.6675 -11.8143 -18.3110 65.3990 -2.1927 3.0905 -27.2342 -0.0638 1.6303 -4.4851 0.3891 0.4814 20.3665 2.4203 0.9922 0.8312 2.1584 0.5191 -10.5757 -0.6881 0.4104 -23.9917 -5.3586 1.4222 5.8957 -1.4649 0.2202 5.6208 -0.0000 0.0000 0.0000 -87.6676 9.4712 38.0290 64.1822 -57.3251 -37.8419 -0.0000 0.0000 -14.8328 24.0128 -8.1068 -3.5948 -7.1250 0.0000 -0.0000 -2.0547 21.1190 1.1771 -0.0000 0.0000 0.0000 86.3351 -15.7792 20.5852 -47.0387 51.7290 -23.8288 0.0000 -0.0000 -6.9707 -38.1376 -0.7443 0.5843 7.1250 -0.0000 -0.0000 -9.1798 -30.8506 -3.2101
-2.4004 16.1746 -42.4104 -2.2378 1.7215 11.7371 0.0000 0.0000 0.0000 -11.9505 -2.3871 -24.6849 20.5018 19.9940 91.4674 0.0231 -1.5047 -2.7406 0.9775 -6.2938 -17.6394 0.0000 0.0000 0.0000 26.8384 5.5372 -42.3155 -11.9064 -18.3508 65.6920 -2.5437 2.5253 -29.5452 -0.1509 2.5033 -6.8987 2.0451 0.5426 20.3121 2.9026 1.5083 0.7826 1.5952 0.6928 -10.5920 -0.6878 0.3292 -23.9274 -5.3781 1.3036 5.6625 -1.4835 0.1673 5.5331 0.0000 0.0000 0.0000 -87.4988 10.3935 36.2536 60.2724 -56.3821 -34.5678 -0.0000 0.0000 -13.6467 25.8322 -8.0553 -3.8809 -7.1250 0.0000 -0.0000 -0.7363 21.0442 0.4228 0.0000 0.0000 0.0000 85.8788 -13.4528 21.9671 -46.7881 51.6150 -23.6322 0.0000 -0.0000 -6.0665 -37.8518 -0.0507 0.0394 7.1250 -0.0000 -0.0000 -8.8772 -29.9829 -3.2884
-2.3879 16.0966 -41.8872 -2.9718 1.5631 12.0025 0.0000 0.0000 0.0000 -10.1785 -2.9804 -29.0331 21.5061 19.9455 94.4073 0.0821 -0.4080 -5.2792 1.2410 -7.0639 -19.9047 0.0000 0.0000 0.0000 27.7709 5.7771 -40.2055 -11.9642 -18.3755 65.8753 -2.8962 2.1637 -31.6866 -0.2499 3.2166 -8.8823 2.5961 0.6835 20.1015 3.0789 1.8348 0.6846 1.3832 0.8238 -10.5795 -0.6063 0.2790 -24.0037 -5.5043 1.2249 5.5628 -1.5461 0.1217 5.5124 0.0000 -0.0000 0.0000 -87.1203 11.9057 34.7703 57.8075 -55.6968 -32.5233 -0.0000 0.0000 -11.5222 27.0047 -8.1241 -4.1193 -7.1250 0.0000 -0.0000 0.1074 20.8773 -0.0621 0.0000 -0.0000 0.0000 85.2846 -11.4041 23.7346 -47.2391 51.8194 -23.9862 0.0000 -0.0000 -4.9755 -38.1960 -0.3486 0.2743 7.1250 -0.0000 -0.0000 -9.1807 -30.3535 -3.3210
